<?xml version="1.0" encoding="UTF-8"?>
<!DOCTYPE svg PUBLIC "-//W3C//DTD SVG 1.1//EN"
  "http://www.w3.org/Graphics/SVG/1.1/DTD/svg11.dtd">
<!-- Created with Inkpad (http://www.taptrix.com/) --><svg xmlns:inkpad="http://taptrix.com/inkpad/svg_extensions" height="1000pt" xmlns:xlink="http://www.w3.org/1999/xlink" xmlns="http://www.w3.org/2000/svg" width="993pt" version="1.1" viewBox="0,0,993,1000">
<defs/>
<g id="Untitled" inkpad:layerName="Untitled">
<g opacity="1">
<path d="M899.776+94.9058C774.929-30.9917+571.535-31.703+445.705+93.2462C326.954+211.184+319.604+398.93+424.265+525.505L425.383+526.69C446.552+550.908+454.816+559.85+472.734+572.924C598.428+672.673+781.669+664.883+898.286+548.977C1024.15+424.028+1024.9+220.668+899.776+94.9058ZM841.756+492.007C747.358+585.862+594.838+585.219+501.152+490.889C407.397+396.491+407.872+244.005+502.303+150.183C596.565+56.4287+749.187+57.1738+842.874+151.436C936.696+245.8+936.187+398.354+841.756+492.007Z" opacity="1" fill="#030104"/>
<path d="M6.87576+912.376L87.793+1000L437.644+620.682L379.319+562.221L6.87576+912.376Z" opacity="1" fill="#030104"/>
</g>
</g>
</svg>
