<?xml version="1.0" encoding="UTF-8"?>
<!DOCTYPE svg PUBLIC "-//W3C//DTD SVG 1.1//EN"
  "http://www.w3.org/Graphics/SVG/1.1/DTD/svg11.dtd">
<!-- Created with Inkpad (http://www.taptrix.com/) --><svg xmlns:inkpad="http://taptrix.com/inkpad/svg_extensions" height="978pt" xmlns:xlink="http://www.w3.org/1999/xlink" xmlns="http://www.w3.org/2000/svg" width="978pt" version="1.1" viewBox="0,0,978,978">
<defs/>
<g id="Untitled" inkpad:layerName="Untitled">
<path d="M966.797+910.352L733.984+677.539C790.82+608.203+824.805+519.727+824.805+423.047C824.805+201.367+644.922+21.4844+423.242+21.4844C201.367+21.4844+21.4844+201.367+21.4844+423.242C21.4844+645.117+201.367+825+423.242+825C519.727+825+608.398+791.016+677.734+734.18L910.352+966.797C925.977+982.422+951.172+982.422+966.797+966.797C982.422+951.172+982.422+925.977+966.797+910.352ZM101.172+423.242C101.172+245.508+245.312+101.367+423.047+101.367C600.781+101.367+744.922+245.508+744.922+423.242C744.922+600.977+600.781+745.117+423.047+745.117C245.312+745.117+101.172+600.977+101.172+423.242Z" opacity="1" fill="#000000"/>
</g>
</svg>
